HIERARCHY
ROOT Hips
{
	OFFSET 0.000000 83.214638 0.000000
	CHANNELS 6 Xposition Yposition Zposition Xrotation Yrotation Zrotation
	JOINT Pelvis
	{
		OFFSET 0.000000 0.000000 0.000000
		CHANNELS 3 Xrotation Yrotation Zrotation
		JOINT LeftUpLeg
		{
			OFFSET 8.479700 -4.795502 -0.379100
			CHANNELS 3 Xrotation Yrotation Zrotation
			JOINT LeftLeg
			{
				OFFSET 0.024144 -32.555107 0.112900
				CHANNELS 3 Xrotation Yrotation Zrotation
				JOINT LeftFoot
				{
					OFFSET -0.024144 -32.638630 -3.012600
					CHANNELS 3 Xrotation Yrotation Zrotation
					JOINT LeftToeBase
					{
						OFFSET 0.970200 -13.225400 11.864200
						CHANNELS 3 Xrotation Yrotation Zrotation
						End Site
						{
							OFFSET 0.000000 12.319262 0.000000
						}
					}
					JOINT LFootTongue
					{
						OFFSET 1.142400 -1.059800 6.665200
						CHANNELS 3 Xrotation Yrotation Zrotation
						End Site
						{
							OFFSET 0.000000 12.319262 0.000000
						}
					}
				}
				JOINT LeftPantLeg
				{
					OFFSET 0.918482 -16.533964 -2.284700
					CHANNELS 3 Xrotation Yrotation Zrotation
					End Site
					{
						OFFSET 0.350399 24.744368 0.000000
					}
				}
			}
		}
		JOINT RightUpLeg
		{
			OFFSET -8.479700 -4.795502 -0.379100
			CHANNELS 3 Xrotation Yrotation Zrotation
			JOINT RightLeg
			{
				OFFSET -0.023144 -32.555092 0.112900
				CHANNELS 3 Xrotation Yrotation Zrotation
				JOINT RightFoot
				{
					OFFSET 0.023144 -32.638641 -3.012700
					CHANNELS 3 Xrotation Yrotation Zrotation
					JOINT RightToeBase
					{
						OFFSET -0.970200 -13.225400 11.864200
						CHANNELS 3 Xrotation Yrotation Zrotation
						End Site
						{
							OFFSET 0.000000 12.319244 0.000000
						}
					}
					JOINT RFootTongue
					{
						OFFSET -1.142200 -1.059800 6.665200
						CHANNELS 3 Xrotation Yrotation Zrotation
						End Site
						{
							OFFSET 0.000000 12.319243 0.000000
						}
					}
				}
				JOINT RightPantLeg
				{
					OFFSET -0.919482 -16.533978 -2.284800
					CHANNELS 3 Xrotation Yrotation Zrotation
					End Site
					{
						OFFSET -0.350400 24.744419 0.000000
					}
				}
			}
		}
	}
	JOINT Spine
	{
		OFFSET 0.000000 7.722000 1.166200
		CHANNELS 3 Xrotation Yrotation Zrotation
		JOINT Spine1
		{
			OFFSET 0.000000 12.024101 0.248800
			CHANNELS 3 Xrotation Yrotation Zrotation
			JOINT Spine2
			{
				OFFSET 0.000000 11.502998 -0.491200
				CHANNELS 3 Xrotation Yrotation Zrotation
				JOINT Neck
				{
					OFFSET 0.000000 18.430702 -3.123100
					CHANNELS 3 Xrotation Yrotation Zrotation
					JOINT Head
					{
						OFFSET 0.000000 9.051102 1.034000
						CHANNELS 3 Xrotation Yrotation Zrotation
						JOINT HairB
						{
							OFFSET 0.208400 24.786102 24.822300
							CHANNELS 3 Xrotation Yrotation Zrotation
							End Site
							{
								OFFSET 0.000000 32.263779 0.000000
							}
						}
						JOINT HairA
						{
							OFFSET -7.081100 24.428299 23.196600
							CHANNELS 3 Xrotation Yrotation Zrotation
							End Site
							{
								OFFSET 0.000000 32.263779 0.000000
							}
						}
						JOINT Hat
						{
							OFFSET 16.728800 15.048294 -15.439601
							CHANNELS 3 Xrotation Yrotation Zrotation
							End Site
							{
								OFFSET 0.000000 32.263779 0.000000
							}
						}
					}
				}
				JOINT LeftShoulder
				{
					OFFSET 6.197800 13.665199 -4.064700
					CHANNELS 3 Xrotation Yrotation Zrotation
					JOINT LeftArm
					{
						OFFSET 7.778100 -0.187103 -1.709300
						CHANNELS 3 Xrotation Yrotation Zrotation
						JOINT LeftForeArm
						{
							OFFSET 22.049376 0.000000 0.000000
							CHANNELS 3 Xrotation Yrotation Zrotation
							JOINT LeftHand
							{
								OFFSET 23.009392 0.000000 0.000000
								CHANNELS 3 Xrotation Yrotation Zrotation
								JOINT LeftHandThumb1
								{
									OFFSET 3.507191 -2.063065 3.133727
									CHANNELS 3 Xrotation Yrotation Zrotation
									JOINT LeftHandThumb2
									{
										OFFSET 3.101337 -1.790558 1.790558
										CHANNELS 3 Xrotation Yrotation Zrotation
										JOINT LeftHandThumb3
										{
											OFFSET 3.058640 -1.765907 1.765906
											CHANNELS 3 Xrotation Yrotation Zrotation
											End Site
											{
												OFFSET -0.415260 3.926476 -0.049563
											}
										}
									}
								}
								JOINT LeftHandIndex1
								{
									OFFSET 11.334419 -0.901459 3.706815
									CHANNELS 3 Xrotation Yrotation Zrotation
									JOINT LeftHandIndex2
									{
										OFFSET 3.283112 0.000000 0.000000
										CHANNELS 3 Xrotation Yrotation Zrotation
										JOINT LeftHandIndex3
										{
											OFFSET 3.323853 0.000000 0.000000
											CHANNELS 3 Xrotation Yrotation Zrotation
											End Site
											{
												OFFSET -1.135597 3.097809 0.402452
											}
										}
									}
								}
								JOINT LeftHandMiddle1
								{
									OFFSET 11.335861 0.000000 0.000000
									CHANNELS 3 Xrotation Yrotation Zrotation
									JOINT LeftHandMiddle2
									{
										OFFSET 3.410492 0.000000 0.000000
										CHANNELS 3 Xrotation Yrotation Zrotation
										JOINT LeftHandMiddle3
										{
											OFFSET 3.312172 0.000000 0.000000
											CHANNELS 3 Xrotation Yrotation Zrotation
											End Site
											{
												OFFSET -1.150200 3.080154 0.400270
											}
										}
									}
								}
								JOINT LeftHandRing1
								{
									OFFSET 11.514786 -0.013176 -3.003090
									CHANNELS 3 Xrotation Yrotation Zrotation
									JOINT LeftHandRing2
									{
										OFFSET 3.053307 0.000000 0.000000
										CHANNELS 3 Xrotation Yrotation Zrotation
										JOINT LeftHandRing3
										{
											OFFSET 3.295807 0.000000 0.000000
											CHANNELS 3 Xrotation Yrotation Zrotation
											End Site
											{
												OFFSET -1.281006 3.013344 0.375733
											}
										}
									}
								}
								JOINT LeftHandPinky1
								{
									OFFSET 10.518692 -0.960396 -5.730441
									CHANNELS 3 Xrotation Yrotation Zrotation
									JOINT LeftHandPinky2
									{
										OFFSET 2.861649 0.000000 0.000000
										CHANNELS 3 Xrotation Yrotation Zrotation
										JOINT LeftHandPinky3
										{
											OFFSET 2.863380 0.000000 0.000000
											CHANNELS 3 Xrotation Yrotation Zrotation
											End Site
											{
												OFFSET -0.843597 2.711159 0.369971
											}
										}
									}
								}
							}
							JOINT LSleeve
							{
								OFFSET 6.676277 -0.344902 -1.011730
								CHANNELS 3 Xrotation Yrotation Zrotation
								End Site
								{
									OFFSET 0.000000 14.885353 0.000000
								}
							}
						}
					}
				}
				JOINT RightShoulder
				{
					OFFSET -6.197800 13.665199 -4.064700
					CHANNELS 3 Xrotation Yrotation Zrotation
					JOINT RightArm
					{
						OFFSET -7.778100 -0.187103 -1.709300
						CHANNELS 3 Xrotation Yrotation Zrotation
						JOINT RightForeArm
						{
							OFFSET -22.049376 0.000000 0.000000
							CHANNELS 3 Xrotation Yrotation Zrotation
							JOINT RightHand
							{
								OFFSET -23.009392 0.000000 0.000000
								CHANNELS 3 Xrotation Yrotation Zrotation
								JOINT RightHandThumb1
								{
									OFFSET -3.507191 -2.063065 3.133727
									CHANNELS 3 Xrotation Yrotation Zrotation
									JOINT RightHandThumb2
									{
										OFFSET -3.101337 -1.790558 1.790558
										CHANNELS 3 Xrotation Yrotation Zrotation
										JOINT RightHandThumb3
										{
											OFFSET -3.058640 -1.765907 1.765906
											CHANNELS 3 Xrotation Yrotation Zrotation
											End Site
											{
												OFFSET 0.415260 3.926476 -0.049563
											}
										}
									}
								}
								JOINT RightHandIndex1
								{
									OFFSET -11.334419 -0.901459 3.706815
									CHANNELS 3 Xrotation Yrotation Zrotation
									JOINT RightHandIndex2
									{
										OFFSET -3.283112 0.000000 0.000000
										CHANNELS 3 Xrotation Yrotation Zrotation
										JOINT RightHandIndex3
										{
											OFFSET -3.323853 0.000000 0.000000
											CHANNELS 3 Xrotation Yrotation Zrotation
											End Site
											{
												OFFSET 1.135597 3.097809 0.402452
											}
										}
									}
								}
								JOINT RightHandMiddle1
								{
									OFFSET -11.335861 0.000000 0.000000
									CHANNELS 3 Xrotation Yrotation Zrotation
									JOINT RightHandMiddle2
									{
										OFFSET -3.410492 0.000000 0.000000
										CHANNELS 3 Xrotation Yrotation Zrotation
										JOINT RightHandMiddle3
										{
											OFFSET -3.312172 0.000000 0.000000
											CHANNELS 3 Xrotation Yrotation Zrotation
											End Site
											{
												OFFSET 1.150200 3.080154 0.400270
											}
										}
									}
								}
								JOINT RightHandRing1
								{
									OFFSET -11.514786 -0.013176 -3.003090
									CHANNELS 3 Xrotation Yrotation Zrotation
									JOINT RightHandRing2
									{
										OFFSET -3.053307 0.000000 0.000000
										CHANNELS 3 Xrotation Yrotation Zrotation
										JOINT RightHandRing3
										{
											OFFSET -3.295807 0.000000 0.000000
											CHANNELS 3 Xrotation Yrotation Zrotation
											End Site
											{
												OFFSET 1.281006 3.013344 0.375733
											}
										}
									}
								}
								JOINT RightHandPinky1
								{
									OFFSET -10.518692 -0.960396 -5.730441
									CHANNELS 3 Xrotation Yrotation Zrotation
									JOINT RightHandPinky2
									{
										OFFSET -2.861649 0.000000 0.000000
										CHANNELS 3 Xrotation Yrotation Zrotation
										JOINT RightHandPinky3
										{
											OFFSET -2.863380 0.000000 0.000000
											CHANNELS 3 Xrotation Yrotation Zrotation
											End Site
											{
												OFFSET 0.843597 2.711159 0.369971
											}
										}
									}
								}
							}
							JOINT RSleeve
							{
								OFFSET -6.676277 -0.344902 -1.011730
								CHANNELS 3 Xrotation Yrotation Zrotation
								End Site
								{
									OFFSET 0.000000 14.885353 0.000000
								}
							}
						}
					}
				}
				JOINT Backpack
				{
					OFFSET 0.000000 -2.471497 36.677502
					CHANNELS 3 Xrotation Yrotation Zrotation
					End Site
					{
						OFFSET 0.000000 20.427315 0.000000
					}
				}
				JOINT Hood
				{
					OFFSET 0.000000 18.754097 -10.431000
					CHANNELS 3 Xrotation Yrotation Zrotation
					JOINT Hood1
					{
						OFFSET 0.000000 -5.011002 -7.685901
						CHANNELS 3 Xrotation Yrotation Zrotation
						End Site
						{
							OFFSET 0.000000 9.175140 0.000000
						}
					}
				}
				JOINT LHoodieString
				{
					OFFSET 5.250500 16.397697 3.089900
					CHANNELS 3 Xrotation Yrotation Zrotation
					JOINT LHoodieString1
					{
						OFFSET 0.257700 -6.364304 3.694600
						CHANNELS 3 Xrotation Yrotation Zrotation
						JOINT LHoodieString2
						{
							OFFSET 0.000000 -9.643799 2.679100
							CHANNELS 3 Xrotation Yrotation Zrotation
							End Site
							{
								OFFSET 0.000000 10.009018 0.000000
							}
						}
					}
				}
				JOINT RHoodieString
				{
					OFFSET -5.250500 16.397697 3.089900
					CHANNELS 3 Xrotation Yrotation Zrotation
					JOINT RHoodieString1
					{
						OFFSET -0.257700 -6.364304 3.694600
						CHANNELS 3 Xrotation Yrotation Zrotation
						JOINT RHoodieString2
						{
							OFFSET 0.000000 -9.643799 2.679100
							CHANNELS 3 Xrotation Yrotation Zrotation
							End Site
							{
								OFFSET 0.000000 10.009018 0.000000
							}
						}
					}
				}
			}
			JOINT LBackpack_Strap
			{
				OFFSET 15.223200 -7.719803 -6.610900
				CHANNELS 3 Xrotation Yrotation Zrotation
				End Site
				{
					OFFSET 0.000000 16.040596 0.000000
				}
			}
			JOINT RBackpack_Strap
			{
				OFFSET -15.223000 -7.719803 -6.610900
				CHANNELS 3 Xrotation Yrotation Zrotation
				End Site
				{
					OFFSET 0.000000 16.040596 0.000000
				}
			}
		}
	}
	JOINT BoyFacialAnim_Joint
	{
		OFFSET 1.000000 -82.208099 -1.550900
		CHANNELS 3 Xrotation Yrotation Zrotation
		End Site
		{
			OFFSET 0.000000 30.012791 0.000000
		}
	}
}
MOTION
Frames: 4
Frame Time: 0.016667
2.675476 76.001167 -25.899235 17.407550 0.638992 -0.318337 0.000000 0.000000 -0.000000 -45.476246 11.825149 -4.441215 51.762343 10.831669 -9.617419 -15.459824 29.072885 7.169305 -0.000000 -0.000001 -0.000000 -0.000000 -0.000001 -0.000000 0.000002 0.000000 -0.000001 -3.064971 -3.527924 10.548810 20.161557 -10.674183 0.660314 -26.480590 -11.221074 -9.421394 0.000000 0.000002 -0.000000 0.000000 0.000002 -0.000000 -0.000002 -0.000002 0.000001 0.290460 -0.667606 0.346354 0.653933 -1.830908 -1.052587 0.655744 -1.831693 -1.049994 -2.996390 1.119227 0.316272 -6.032484 6.098676 -0.632911 -0.000000 0.000000 -0.000000 -0.000000 0.000000 -0.000000 -0.000000 0.000000 -0.000000 0.085444 3.935089 -2.580510 -56.776238 -47.958788 -86.499613 -0.000430 -99.510051 -0.000463 30.651478 -40.355828 1.595645 -1.514517 3.689239 6.142646 3.939066 7.948692 0.746802 0.000001 0.000001 -0.000002 0.000000 -0.000051 0.000422 0.000003 0.000016 -0.000045 -0.000000 -0.000001 -0.000002 0.000002 -0.001979 0.016412 -0.000001 0.001934 -0.015982 0.000001 -0.000001 -0.000002 -0.000000 -0.000051 0.000420 0.000004 -0.000006 -0.000010 0.000001 -0.000002 0.000003 -0.018117 4.054201 0.511501 -0.018087 -4.054242 -0.511053 0.000002 0.000001 -0.000002 -0.000002 0.000002 -0.000001 0.341128 -4.421371 7.505370 11.665821 -24.096286 54.698436 0.000001 14.091781 0.000005 26.699565 -41.006868 9.432711 -1.738588 -3.581790 -6.586132 4.637202 -8.634139 -0.225408 -0.000001 0.000000 0.000001 0.000007 0.000001 0.000005 -0.000004 -0.000012 -0.000020 0.000000 -0.000003 0.000003 0.000002 -0.000002 0.000005 0.000000 0.000006 0.000020 -0.000002 0.000001 -0.000003 0.000007 0.000001 0.000002 -0.000000 -0.000008 -0.000010 0.000000 0.000001 -0.000003 0.000011 -0.000000 -0.000001 0.000001 0.000006 0.000007 0.000000 -0.000001 -0.000002 0.000001 0.000001 -0.000001 -0.000000 -0.000000 0.000000 -0.000000 -0.000000 0.000000 -0.000000 -0.000000 0.000000 -0.000000 -0.000000 0.000000 -0.000000 -0.000000 0.000000 -0.000000 0.000000 -0.000000 -0.000000 -0.000000 0.000000 -0.000000 -0.000000 0.000000 -0.000000 0.000000 -0.000000 0.000002 0.000000 -0.000000 0.000002 0.000000 -0.000000 0.000000 0.000000 -0.000000 
2.780341 75.178047 -26.654291 17.860624 -0.872238 -0.153926 -0.000002 -0.000000 -0.000000 -46.640879 12.200519 -4.225359 53.002753 11.369721 -9.587879 -19.632732 28.508383 8.838090 -0.000000 0.000002 -0.000000 -0.000000 0.000002 -0.000000 0.000000 0.000000 -0.000000 -2.579915 -2.617307 11.019718 18.650573 -10.271684 -0.143960 -30.583357 -9.658204 -10.465638 -0.000000 -0.000002 0.000001 -0.000000 -0.000002 0.000001 0.000002 0.000001 0.000001 0.380330 -0.576720 0.436763 0.839428 -1.490122 -1.005000 0.841787 -1.490087 -1.003032 -3.381185 1.278224 -0.024142 -7.092502 6.514984 -1.017365 -0.000001 0.000000 0.000000 -0.000001 0.000000 0.000000 -0.000001 0.000000 0.000000 0.066346 4.092694 -2.749983 -57.966852 -48.075130 -87.079823 0.000366 -99.827087 0.000339 31.096581 -40.241555 3.113293 -1.513106 3.689493 6.142565 3.939065 7.948692 0.746808 -0.000000 0.000001 -0.000003 -0.000001 -0.000036 0.000301 0.000004 0.000015 -0.000047 -0.000000 0.000002 -0.000001 -0.000000 -0.001970 0.016295 -0.000002 0.001931 -0.015977 -0.000000 -0.000001 0.000002 -0.000001 -0.000040 0.000317 0.000003 -0.000006 -0.000007 -0.000000 -0.000001 -0.000000 -0.018105 4.054219 0.511373 -0.018091 -4.054244 -0.511049 -0.000000 0.000000 -0.000000 -0.000001 -0.000000 0.000001 0.357812 -4.128329 7.237575 10.151507 -21.429742 54.766540 -0.000011 14.120312 -0.000005 21.523126 -41.883304 3.636428 -1.739449 -3.581784 -6.586146 4.637204 -8.634138 -0.225410 0.000001 -0.000001 0.000000 -0.000004 -0.000001 0.000001 -0.000002 -0.000011 -0.000018 -0.000002 -0.000000 0.000002 -0.000006 -0.000003 0.000001 -0.000001 0.000006 0.000018 -0.000002 0.000001 0.000002 -0.000004 0.000001 -0.000013 0.000000 -0.000009 -0.000006 0.000000 -0.000001 -0.000002 -0.000008 -0.000001 -0.000010 0.000000 0.000008 0.000007 0.000002 -0.000002 0.000003 -0.000000 0.000000 -0.000001 0.000001 -0.000000 -0.000000 0.000001 -0.000000 -0.000000 0.000001 -0.000000 -0.000000 0.000001 -0.000000 -0.000000 0.000001 -0.000000 -0.000000 0.000001 0.000000 -0.000000 0.000001 -0.000000 -0.000000 0.000001 -0.000000 -0.000000 0.000001 0.000000 -0.000000 0.000001 -0.000000 -0.000000 0.000001 -0.000000 -0.000000 -0.000002 -0.000000 -0.000000 
2.876232 74.654701 -27.236820 18.242819 -2.337858 0.066375 -0.000001 0.000000 0.000000 -47.338737 12.622820 -3.920238 53.567818 11.953520 -9.541594 -22.498005 27.900764 9.906659 0.000001 -0.000003 0.000001 0.000001 -0.000003 0.000000 -0.000000 0.000000 0.000000 -3.035083 -1.998853 11.028306 18.753374 -10.047893 -0.805129 -33.051524 -8.232578 -10.181520 0.000000 0.000001 -0.000000 0.000000 0.000001 -0.000000 -0.000001 -0.000001 0.000000 0.492143 -0.486601 0.534406 1.063929 -1.195068 -0.944048 1.066420 -1.193945 -0.942641 -3.717270 1.476828 -0.421960 -7.822802 7.031211 -1.337922 0.000001 -0.000000 -0.000000 0.000001 -0.000000 -0.000000 0.000001 -0.000000 -0.000000 0.049188 4.276957 -3.011937 -58.871149 -48.137315 -87.986804 0.000163 -99.805053 0.000178 31.520712 -40.160901 4.450605 -1.511685 3.689921 6.142442 3.939067 7.948691 0.746805 0.000001 0.000002 -0.000002 0.000000 -0.000015 0.000111 0.000003 0.000016 -0.000043 -0.000000 0.000001 0.000002 0.000001 -0.001942 0.016105 -0.000001 0.001933 -0.015975 -0.000001 -0.000000 0.000004 0.000001 -0.000016 0.000121 0.000001 -0.000006 -0.000014 -0.000000 -0.000002 0.000003 -0.018090 4.054241 0.511181 -0.018086 -4.054239 -0.511050 0.000000 0.000001 -0.000000 0.000001 -0.000001 -0.000000 0.384399 -3.724217 6.943322 8.764606 -19.063034 55.509951 0.000002 13.884459 -0.000003 18.001005 -41.050243 -0.615194 -1.740316 -3.581780 -6.586138 4.637204 -8.634140 -0.225407 0.000001 0.000001 -0.000000 -0.000001 -0.000001 0.000010 -0.000004 -0.000012 -0.000014 0.000000 -0.000000 0.000002 0.000000 0.000001 0.000003 0.000000 0.000008 0.000022 -0.000000 -0.000001 0.000003 0.000002 -0.000002 -0.000009 -0.000004 -0.000008 -0.000006 -0.000005 0.000001 -0.000001 -0.000004 0.000007 -0.000005 -0.000001 0.000011 0.000007 0.000002 -0.000000 -0.000002 0.000002 0.000000 0.000003 0.000001 0.000000 -0.000000 0.000001 0.000000 -0.000000 0.000001 0.000000 -0.000000 0.000001 0.000000 -0.000000 0.000001 0.000000 -0.000000 -0.000001 -0.000000 0.000000 0.000001 0.000000 -0.000000 0.000001 0.000000 -0.000000 -0.000001 -0.000000 0.000000 0.000000 -0.000000 -0.000000 0.000000 -0.000000 -0.000000 -0.000001 0.000000 0.000000 
2.924199 74.547829 -27.590464 18.508494 -3.497759 0.349016 0.000000 -0.000000 0.000000 -47.499144 13.011717 -3.653104 53.326839 12.367182 -9.495637 -23.585060 27.475105 10.327944 0.000000 -0.000001 0.000001 0.000000 -0.000001 0.000001 -0.000002 0.000000 0.000001 -3.914342 -1.637592 10.779798 19.559958 -9.994020 -1.263099 -33.706184 -7.410481 -9.234166 0.000000 0.000001 0.000000 0.000000 0.000001 0.000000 0.000003 -0.000001 0.000001 0.607137 -0.443482 0.539708 1.276138 -1.018728 -0.918999 1.278434 -1.016640 -0.918154 -3.909948 1.673043 -0.755795 -7.960283 7.572396 -1.496248 0.000001 0.000000 -0.000000 0.000001 0.000000 -0.000000 0.000001 0.000000 -0.000000 0.039471 4.456467 -3.348967 -59.308623 -48.121193 -89.167239 0.000670 -99.399531 0.000655 32.005348 -40.115101 5.419648 -1.510256 3.690285 6.142317 3.939067 7.948691 0.746809 -0.000000 -0.000000 -0.000001 0.000000 0.000006 -0.000055 0.000003 0.000016 -0.000043 -0.000001 0.000001 0.000003 0.000001 -0.001929 0.015946 0.000001 0.001932 -0.015979 0.000001 -0.000002 -0.000005 0.000004 0.000002 -0.000044 0.000005 -0.000009 -0.000009 -0.000001 -0.000002 0.000003 -0.018078 4.054258 0.511018 -0.018086 -4.054241 -0.511060 0.000002 -0.000001 0.000003 0.000000 0.000003 0.000003 0.415924 -3.288743 6.675627 7.596390 -17.110594 56.723471 0.000009 13.340013 0.000008 17.398797 -38.577803 -1.820699 -1.741167 -3.581792 -6.586127 4.637205 -8.634141 -0.225409 -0.000000 0.000001 -0.000002 0.000010 -0.000010 0.000006 -0.000001 -0.000008 -0.000022 -0.000001 0.000000 -0.000001 0.000000 0.000008 -0.000008 -0.000001 0.000006 0.000022 -0.000002 0.000000 0.000003 0.000015 0.000003 0.000001 0.000001 -0.000007 -0.000010 -0.000002 -0.000002 -0.000002 0.000005 -0.000004 -0.000005 0.000003 0.000009 0.000009 0.000003 -0.000004 0.000003 0.000001 0.000001 0.000000 0.000001 0.000000 -0.000000 0.000001 0.000000 -0.000000 0.000001 0.000000 -0.000000 0.000001 0.000000 -0.000000 0.000001 0.000000 -0.000000 -0.000000 0.000000 -0.000000 0.000001 0.000000 -0.000000 0.000001 0.000000 -0.000000 -0.000000 0.000000 -0.000000 0.000003 -0.000000 0.000000 0.000003 -0.000000 0.000000 0.000000 -0.000000 0.000000 
